<?xml version="1.0" encoding="UTF-8"?>
<svg width="185px" height="127px" viewBox="0 0 185 127" version="1.1" xmlns="http://www.w3.org/2000/svg" xmlns:xlink="http://www.w3.org/1999/xlink">
    <!-- Generator: Sketch 39.1 (31720) - http://www.bohemiancoding.com/sketch -->
    <title>EL PARIÁN Weddings &amp; Copy</title>
    <desc>Created with Sketch.</desc>
    <defs></defs>
    <g id="Page-1" stroke="none" stroke-width="1" fill="none" fill-rule="evenodd">
        <g id="Desktop" transform="translate(-20.000000, -31.000000)" fill="#F1F1F1">
            <path d="M48.6335,64.677 L48.6335,67 L24.747,67 L24.747,31.145 L48.179,31.145 L48.179,33.468 L27.3225,33.468 L27.3225,47.5575 L45.553,47.5575 L45.553,49.7795 L27.3225,49.7795 L27.3225,64.677 L48.6335,64.677 Z M55.8045,67 L55.8045,31.145 L58.38,31.145 L58.38,64.677 L79.792,64.677 L79.792,67 L55.8045,67 Z M24.747,126 L24.747,90.145 L39.493,90.145 C41.0080076,90.145 42.4051603,90.4648301 43.6845,91.1045 C44.9638397,91.7441699 46.066412,92.5942447 46.99225,93.65475 C47.918088,94.7152553 48.6419141,95.91041 49.16375,97.24025 C49.6855859,98.57009 49.9465,99.9083266 49.9465,101.255 C49.9465,102.702674 49.7024191,104.099827 49.21425,105.4465 C48.7260809,106.793173 48.0359211,107.988328 47.14375,109.032 C46.2515789,110.075672 45.1910895,110.908914 43.96225,111.53175 C42.7334105,112.154586 41.3615076,112.466 39.8465,112.466 L27.3225,112.466 L27.3225,126 L24.747,126 Z M27.3225,110.0925 L39.695,110.0925 C40.8733392,110.0925 41.9338286,109.848419 42.8765,109.36025 C43.8191714,108.872081 44.6187467,108.215587 45.27525,107.39075 C45.9317533,106.565913 46.4367482,105.623255 46.79025,104.56275 C47.1437518,103.502245 47.3205,102.399672 47.3205,101.255 C47.3205,100.076661 47.1100854,98.9572553 46.68925,97.89675 C46.2684146,96.8362447 45.696087,95.902004 44.97225,95.094 C44.248413,94.285996 43.4067548,93.6463357 42.44725,93.175 C41.4877452,92.7036643 40.4693387,92.468 39.392,92.468 L27.3225,92.468 L27.3225,110.0925 Z M52.32,126 L67.571,90.145 L69.692,90.145 L84.943,126 L82.1655,126 L77.166,114.183 L60.0465,114.183 L55.047,126 L52.32,126 Z M68.6315,93.276 L60.6525,112.062 L76.459,112.062 L68.6315,93.276 Z M90.5485,126 L90.5485,90.145 L105.4965,90.145 C107.011508,90.145 108.40866,90.4648301 109.688,91.1045 C110.96734,91.7441699 112.061495,92.5942447 112.9705,93.65475 C113.879505,94.7152553 114.594914,95.91041 115.11675,97.24025 C115.638586,98.57009 115.8995,99.9083266 115.8995,101.255 C115.8995,102.568007 115.697502,103.838911 115.2935,105.06775 C114.889498,106.296589 114.31717,107.399162 113.5765,108.3755 C112.83583,109.351838 111.943672,110.15983 110.9,110.7995 C109.856328,111.43917 108.711673,111.859999 107.466,112.062 L116.4045,126 L113.425,126 L104.739,112.466 L93.124,112.466 L93.124,126 L90.5485,126 Z M93.124,110.0925 L105.6985,110.0925 C106.843172,110.0925 107.886829,109.840003 108.8295,109.335 C109.772171,108.829997 110.580163,108.165087 111.2535,107.34025 C111.926837,106.515413 112.440248,105.572755 112.79375,104.51225 C113.147252,103.451745 113.324,102.366006 113.324,101.255 C113.324,100.110328 113.113585,99.0077553 112.69275,97.94725 C112.271915,96.8867447 111.699587,95.952504 110.97575,95.1445 C110.251913,94.336496 109.410255,93.6884191 108.45075,93.20025 C107.491245,92.7120809 106.456006,92.468 105.345,92.468 L93.124,92.468 L93.124,110.0925 Z M123.6765,126 L123.6765,90.1955 L126.252,90.1955 L126.252,126 L123.6765,126 Z M131.908,126 L147.159,90.145 L149.28,90.145 L164.531,126 L161.7535,126 L156.754,114.183 L139.6345,114.183 L134.635,126 L131.908,126 Z M148.2195,93.276 L140.2405,112.062 L156.047,112.062 L148.2195,93.276 Z M148.169,84.792 L146.4015,83.984 L149.482,79.6915 L152.411,79.6915 L148.169,84.792 Z M172.712,94.993 L172.712,126 L170.1365,126 L170.1365,90.145 L172.106,90.145 L197.255,121.7075 L197.255,90.1955 L199.8305,90.1955 L199.8305,126 L197.457,126 L172.712,94.993 Z M25.423,141.964 L27.582,141.964 L28.942,145.959 L30.302,141.964 L32.478,141.964 L30.421,147.455 L31.951,151.314 L35.368,141.93 L37.918,141.93 L33.005,154 L31.033,154 L28.942,148.934 L26.851,154 L24.879,154 L19.983,141.93 L22.516,141.93 L25.95,151.314 L27.446,147.455 L25.423,141.964 Z M46.869,154.17 C46.1549964,154.17 45.5090028,154.048168 44.931,153.8045 C44.3529971,153.560832 43.860002,153.229335 43.452,152.81 C43.0439979,152.390665 42.7295011,151.903336 42.5085,151.348 C42.2874988,150.792664 42.177,150.209003 42.177,149.597 C42.177,148.96233 42.2846655,148.364503 42.5,147.8035 C42.7153344,147.242497 43.0269979,146.749502 43.435,146.3245 C43.843002,145.899498 44.3388304,145.562335 44.9225,145.313 C45.5061695,145.063665 46.160663,144.939 46.886,144.939 C47.6113369,144.939 48.2601638,145.063665 48.8325,145.313 C49.4048361,145.562335 49.8921646,145.896665 50.2945,146.316 C50.6968353,146.735335 51.0028322,147.222664 51.2125,147.778 C51.4221677,148.333336 51.527,148.91133 51.527,149.512 C51.527,149.659334 51.5241666,149.800999 51.5185,149.937 C51.5128333,150.073001 51.4986667,150.186333 51.476,150.277 L44.591,150.277 C44.6250001,150.628335 44.7099993,150.939999 44.846,151.212 C44.9820006,151.484001 45.1576655,151.716332 45.373,151.909 C45.5883344,152.101668 45.8319986,152.248999 46.104,152.351 C46.3760013,152.453001 46.6593318,152.504 46.954,152.504 C47.4073356,152.504 47.8351646,152.393501 48.2375,152.1725 C48.6398353,151.951499 48.9146659,151.659668 49.062,151.297 L51.017,151.841 C50.6883316,152.521003 50.1641702,153.079164 49.4445,153.5155 C48.7248297,153.951836 47.8663383,154.17 46.869,154.17 L46.869,154.17 Z M49.181,148.798 C49.124333,148.12933 48.8778355,147.593835 48.4415,147.1915 C48.0051644,146.789165 47.4753364,146.588 46.852,146.588 C46.5459984,146.588 46.2598346,146.641833 45.9935,146.7495 C45.7271653,146.857167 45.492001,147.007332 45.288,147.2 C45.0839989,147.392668 44.9168339,147.624999 44.7865,147.897 C44.656166,148.169001 44.5796667,148.469332 44.557,148.798 L49.181,148.798 Z M60.4099999,154.17 C59.7979968,154.17 59.2341691,154.051001 58.7184999,153.813 C58.2028307,153.574999 57.7580018,153.246335 57.3839999,152.827 C57.009998,152.407665 56.7181676,151.917503 56.5084999,151.3565 C56.2988322,150.795497 56.1939999,150.192003 56.1939999,149.546 C56.1939999,148.899997 56.2931656,148.299336 56.4914999,147.744 C56.6898342,147.188664 56.9646648,146.701335 57.3159999,146.282 C57.667335,145.862665 58.0866641,145.534001 58.5739999,145.296 C59.0613357,145.057999 59.593997,144.939 60.1719999,144.939 C60.8180031,144.939 61.4044973,145.097665 61.9314999,145.415 C62.4585025,145.732335 62.8693318,146.145997 63.1639999,146.656 L63.1639999,141.59 L65.4419999,141.59 L65.4419999,151.382 C65.4419999,151.620001 65.4873328,151.789999 65.5779999,151.892 C65.668667,151.994001 65.8273321,152.050667 66.0539999,152.062 L66.0539999,154 C65.6233311,154.079334 65.260668,154.119 64.9659999,154.119 C64.5466645,154.107667 64.2208344,154.011334 63.9884999,153.83 C63.7561654,153.648666 63.6116669,153.393668 63.5549999,153.065 L63.5039999,152.453 C63.1753316,153.019669 62.733336,153.447499 62.1779999,153.7365 C61.6226638,154.025501 61.0333364,154.17 60.4099999,154.17 L60.4099999,154.17 Z M61.0049999,152.232 C61.2203343,152.232 61.4413321,152.195167 61.6679999,152.1215 C61.8946677,152.047833 62.1043323,151.943001 62.2969999,151.807 C62.4896675,151.670999 62.6653324,151.512334 62.8239999,151.331 C62.9826674,151.149666 63.1016662,150.951334 63.1809999,150.736 L63.1809999,148.611 C62.9883323,148.112331 62.6738354,147.698668 62.2374999,147.37 C61.8011644,147.041332 61.3450023,146.877 60.8689999,146.877 C60.5289982,146.877 60.2145013,146.950666 59.9254999,147.098 C59.6364985,147.245334 59.3900009,147.446499 59.1859999,147.7015 C58.9819989,147.956501 58.8233338,148.248332 58.7099999,148.577 C58.596666,148.905668 58.5399999,149.245665 58.5399999,149.597 C58.5399999,149.971002 58.6023326,150.316665 58.7269999,150.634 C58.8516672,150.951335 59.0244988,151.228999 59.2454999,151.467 C59.466501,151.705001 59.7271651,151.891999 60.0274999,152.028 C60.3278347,152.164001 60.6536648,152.232 61.0049999,152.232 L61.0049999,152.232 Z M75.2429999,154.17 C74.6309968,154.17 74.0671691,154.051001 73.5514999,153.813 C73.0358306,153.574999 72.5910017,153.246335 72.2169999,152.827 C71.842998,152.407665 71.5511676,151.917503 71.3414999,151.3565 C71.1318321,150.795497 71.0269999,150.192003 71.0269999,149.546 C71.0269999,148.899997 71.1261655,148.299336 71.3244999,147.744 C71.5228342,147.188664 71.7976648,146.701335 72.1489999,146.282 C72.5003349,145.862665 72.9196641,145.534001 73.4069999,145.296 C73.8943356,145.057999 74.426997,144.939 75.0049999,144.939 C75.6510031,144.939 76.2374972,145.097665 76.7644999,145.415 C77.2915025,145.732335 77.7023317,146.145997 77.9969999,146.656 L77.9969999,141.59 L80.2749999,141.59 L80.2749999,151.382 C80.2749999,151.620001 80.3203327,151.789999 80.4109999,151.892 C80.501667,151.994001 80.6603321,152.050667 80.8869999,152.062 L80.8869999,154 C80.456331,154.079334 80.093668,154.119 79.7989999,154.119 C79.3796644,154.107667 79.0538344,154.011334 78.8214999,153.83 C78.5891654,153.648666 78.4446668,153.393668 78.3879999,153.065 L78.3369999,152.453 C78.0083315,153.019669 77.566336,153.447499 77.0109999,153.7365 C76.4556637,154.025501 75.8663363,154.17 75.2429999,154.17 L75.2429999,154.17 Z M75.8379999,152.232 C76.0533343,152.232 76.2743321,152.195167 76.5009999,152.1215 C76.7276677,152.047833 76.9373322,151.943001 77.1299999,151.807 C77.3226675,151.670999 77.4983324,151.512334 77.6569999,151.331 C77.8156673,151.149666 77.9346661,150.951334 78.0139999,150.736 L78.0139999,148.611 C77.8213322,148.112331 77.5068354,147.698668 77.0704999,147.37 C76.6341643,147.041332 76.1780022,146.877 75.7019999,146.877 C75.3619982,146.877 75.0475013,146.950666 74.7584999,147.098 C74.4694984,147.245334 74.2230009,147.446499 74.0189999,147.7015 C73.8149988,147.956501 73.6563338,148.248332 73.5429999,148.577 C73.429666,148.905668 73.3729999,149.245665 73.3729999,149.597 C73.3729999,149.971002 73.4353326,150.316665 73.5599999,150.634 C73.6846671,150.951335 73.8574988,151.228999 74.0784999,151.467 C74.299501,151.705001 74.560165,151.891999 74.8604999,152.028 C75.1608347,152.164001 75.4866648,152.232 75.8379999,152.232 L75.8379999,152.232 Z M86.3869998,154 L86.3869998,145.092 L88.6649998,145.092 L88.6649998,154 L86.3869998,154 Z M86.3869998,143.851 L86.3869998,141.59 L88.6649998,141.59 L88.6649998,143.851 L86.3869998,143.851 Z M102.767,154 L100.489,154 L100.489,149.002 C100.489,148.287996 100.364334,147.766668 100.115,147.438 C99.8656652,147.109332 99.520002,146.945 99.0779998,146.945 C98.851332,146.945 98.619001,146.990333 98.3809998,147.081 C98.1429986,147.171667 97.9191675,147.299166 97.7094998,147.4635 C97.499832,147.627834 97.3100006,147.823332 97.1399998,148.05 C96.9699989,148.276668 96.8453335,148.525999 96.7659998,148.798 L96.7659998,154 L94.4879998,154 L94.4879998,145.092 L96.5449998,145.092 L96.5449998,146.741 C96.8736681,146.17433 97.3496633,145.732335 97.9729998,145.415 C98.5963362,145.097665 99.2989959,144.939 100.081,144.939 C100.636336,144.939 101.089665,145.040999 101.441,145.245 C101.792335,145.449001 102.064332,145.715332 102.257,146.044 C102.449667,146.372668 102.582833,146.746665 102.6565,147.166 C102.730167,147.585335 102.767,148.010331 102.767,148.441 L102.767,154 Z M112.007,154.051 C111.417663,154.051 110.876502,153.932001 110.3835,153.694 C109.890497,153.455999 109.468335,153.130169 109.117,152.7165 C108.765665,152.302831 108.493667,151.824003 108.301,151.28 C108.108332,150.735997 108.012,150.158003 108.012,149.546 C108.012,148.899997 108.113999,148.299336 108.318,147.744 C108.522001,147.188664 108.805331,146.701335 109.168,146.282 C109.530668,145.862665 109.964164,145.534001 110.4685,145.296 C110.972836,145.057999 111.530997,144.939 112.143,144.939 C112.84567,144.939 113.457664,145.094832 113.979,145.4065 C114.500336,145.718168 114.925331,146.134664 115.254,146.656 L115.254,145.092 L117.243,145.092 L117.243,153.575 C117.243,154.232337 117.121168,154.821664 116.8775,155.343 C116.633832,155.864336 116.291002,156.306332 115.849,156.669 C115.406998,157.031668 114.885669,157.309332 114.285,157.502 C113.68433,157.694668 113.027003,157.791 112.313,157.791 C111.326995,157.791 110.502503,157.629502 109.8395,157.3065 C109.176496,156.983498 108.607002,156.527336 108.131,155.938 L109.372,154.731 C109.712001,155.150335 110.13983,155.478999 110.6555,155.717 C111.171169,155.955001 111.723663,156.074 112.313,156.074 C112.664335,156.074 113.001498,156.025834 113.3245,155.9295 C113.647501,155.833166 113.930832,155.683001 114.1745,155.479 C114.418168,155.274999 114.610832,155.014335 114.7525,154.697 C114.894167,154.379665 114.965,154.005669 114.965,153.575 L114.965,152.453 C114.670332,152.963003 114.256669,153.356832 113.724,153.6345 C113.19133,153.912168 112.619003,154.051 112.007,154.051 L112.007,154.051 Z M112.789,152.232 C113.038334,152.232 113.276332,152.192334 113.503,152.113 C113.729668,152.033666 113.936499,151.926001 114.1235,151.79 C114.310501,151.653999 114.477666,151.495334 114.625,151.314 C114.772334,151.132666 114.885666,150.940001 114.965,150.736 L114.965,148.611 C114.760999,148.089664 114.443669,147.670335 114.013,147.353 C113.582331,147.035665 113.129002,146.877 112.653,146.877 C112.301665,146.877 111.981501,146.953499 111.6925,147.1065 C111.403498,147.259501 111.157001,147.463499 110.953,147.7185 C110.748999,147.973501 110.593167,148.265332 110.4855,148.594 C110.377833,148.922668 110.324,149.262665 110.324,149.614 C110.324,149.976668 110.386332,150.316665 110.511,150.634 C110.635667,150.951335 110.808499,151.228999 111.0295,151.467 C111.250501,151.705001 111.511165,151.891999 111.8115,152.028 C112.111835,152.164001 112.437665,152.232 112.789,152.232 L112.789,152.232 Z M126.602,154.17 C126.239331,154.17 125.862502,154.141667 125.4715,154.085 C125.080498,154.028333 124.698002,153.949001 124.324,153.847 C123.949998,153.744999 123.593001,153.620334 123.253,153.473 C122.912998,153.325666 122.612668,153.161334 122.352,152.98 L123.27,151.433 C124.403339,152.16967 125.496994,152.538 126.551,152.538 C127.027002,152.538 127.400998,152.453001 127.673,152.283 C127.945001,152.112999 128.081,151.869335 128.081,151.552 C128.081,151.234665 127.919501,150.999501 127.5965,150.8465 C127.273498,150.693499 126.732337,150.526334 125.973,150.345 C125.394997,150.208999 124.902002,150.067334 124.494,149.92 C124.085998,149.772666 123.757334,149.602668 123.508,149.41 C123.258665,149.217332 123.077334,148.996335 122.964,148.747 C122.850666,148.497665 122.794,148.203002 122.794,147.863 C122.794,147.409664 122.884665,147.001668 123.066,146.639 C123.247334,146.276332 123.499498,145.967501 123.8225,145.7125 C124.145501,145.457499 124.525164,145.262001 124.9615,145.126 C125.397835,144.989999 125.870997,144.922 126.381,144.922 C127.01567,144.922 127.647497,145.021166 128.2765,145.2195 C128.905503,145.417834 129.491997,145.686998 130.036,146.027 L129.101,147.438 C128.602331,147.120665 128.132002,146.891167 127.69,146.7495 C127.247997,146.607833 126.806002,146.537 126.364,146.537 C125.955998,146.537 125.613168,146.616333 125.3355,146.775 C125.057832,146.933667 124.919,147.188665 124.919,147.54 C124.919,147.846002 125.052165,148.066999 125.3185,148.203 C125.584834,148.339001 126.057996,148.491999 126.738,148.662 C127.37267,148.820667 127.913831,148.979333 128.3615,149.138 C128.809169,149.296667 129.177498,149.477999 129.4665,149.682 C129.755501,149.886001 129.965166,150.121165 130.0955,150.3875 C130.225834,150.653835 130.291,150.973998 130.291,151.348 C130.291,151.778669 130.203167,152.169665 130.0275,152.521 C129.851832,152.872335 129.605335,153.169832 129.288,153.4135 C128.970665,153.657168 128.582502,153.844166 128.1235,153.9745 C127.664497,154.104834 127.157336,154.17 126.602,154.17 L126.602,154.17 Z M151.474,154 L150.522,152.997 C150.02333,153.382335 149.485002,153.674166 148.907,153.8725 C148.328997,154.070834 147.734003,154.17 147.122,154.17 C146.498663,154.17 145.937669,154.073668 145.439,153.881 C144.94033,153.688332 144.515335,153.427668 144.164,153.099 C143.812664,152.770332 143.540667,152.387836 143.348,151.9515 C143.155332,151.515164 143.059,151.059002 143.059,150.583 C143.059,150.208998 143.115666,149.863335 143.229,149.546 C143.342333,149.228665 143.492499,148.934001 143.6795,148.662 C143.866501,148.389999 144.087498,148.137834 144.3425,147.9055 C144.597501,147.673166 144.860998,147.455001 145.133,147.251 C144.894998,146.978999 144.696667,146.732501 144.538,146.5115 C144.379332,146.290499 144.249,146.078001 144.147,145.874 C144.044999,145.669999 143.971333,145.471668 143.926,145.279 C143.880666,145.086332 143.858,144.882334 143.858,144.667 C143.858,144.236331 143.940165,143.842502 144.1045,143.4855 C144.268834,143.128498 144.498331,142.822501 144.793,142.5675 C145.087668,142.312499 145.436164,142.117001 145.8385,141.981 C146.240835,141.844999 146.679997,141.777 147.156,141.777 C147.575335,141.777 147.977664,141.833666 148.363,141.947 C148.748335,142.060334 149.091165,142.227499 149.3915,142.4485 C149.691834,142.669501 149.929832,142.947165 150.1055,143.2815 C150.281167,143.615835 150.369,144.003998 150.369,144.446 C150.369,145.103337 150.176335,145.678498 149.791,146.1715 C149.405664,146.664502 148.912669,147.126331 148.312,147.557 L150.641,149.988 C150.811,149.625332 150.944166,149.225836 151.0405,148.7895 C151.136833,148.353164 151.185,147.885669 151.185,147.387 L153.038,147.387 C153.026666,148.191671 152.927501,148.925497 152.7405,149.5885 C152.553499,150.251503 152.295668,150.849331 151.967,151.382 L154.466,154 L151.474,154 Z M147.36,152.385 C148.06267,152.385 148.708663,152.158336 149.298,151.705 L146.51,148.747 C146.124664,149.030335 145.818667,149.319332 145.592,149.614 C145.365332,149.908668 145.252,150.237332 145.252,150.6 C145.252,150.838001 145.302999,151.067499 145.405,151.2885 C145.507,151.509501 145.651499,151.699333 145.8385,151.858 C146.025501,152.016667 146.249332,152.144166 146.51,152.2405 C146.770668,152.336834 147.053998,152.385 147.36,152.385 L147.36,152.385 Z M145.932,144.599 C145.932,144.791668 145.999999,144.987166 146.136,145.1855 C146.272,145.383834 146.526998,145.681331 146.901,146.078 C147.343002,145.794665 147.685832,145.536834 147.9295,145.3045 C148.173167,145.072166 148.295,144.797335 148.295,144.48 C148.295,144.173998 148.187334,143.927501 147.972,143.7405 C147.756665,143.553499 147.484668,143.46 147.156,143.46 C146.793331,143.46 146.498667,143.570499 146.272,143.7915 C146.045332,144.012501 145.932,144.281665 145.932,144.599 L145.932,144.599 Z M174.662999,145.092 C174.583666,145.012666 174.439167,144.905001 174.229499,144.769 C174.019832,144.632999 173.764834,144.499834 173.464499,144.3695 C173.164165,144.239166 172.838335,144.128667 172.486999,144.038 C172.135664,143.947333 171.778668,143.902 171.415999,143.902 C170.769996,143.902 170.288334,144.020999 169.970999,144.259 C169.653665,144.497001 169.494999,144.831331 169.494999,145.262 C169.494999,145.511335 169.554499,145.718166 169.673499,145.8825 C169.7925,146.046834 169.965332,146.191333 170.191999,146.316 C170.418667,146.440667 170.704831,146.553999 171.050499,146.656 C171.396168,146.758001 171.795664,146.865666 172.248999,146.979 C172.838336,147.137667 173.37383,147.307666 173.855499,147.489 C174.337169,147.670334 174.745164,147.896999 175.079499,148.169 C175.413834,148.441001 175.671665,148.766831 175.852999,149.1465 C176.034334,149.526169 176.124999,149.993664 176.124999,150.549 C176.124999,151.195003 176.003167,151.747498 175.759499,152.2065 C175.515832,152.665502 175.190002,153.036665 174.781999,153.32 C174.373997,153.603335 173.898002,153.810166 173.353999,153.9405 C172.809997,154.070834 172.243336,154.136 171.653999,154.136 C170.747328,154.136 169.852004,154.000001 168.967999,153.728 C168.083995,153.455999 167.29067,153.070669 166.587999,152.572 L167.624999,150.549 C167.727,150.651001 167.911165,150.784166 168.177499,150.9485 C168.443834,151.112834 168.758331,151.277166 169.120999,151.4415 C169.483668,151.605834 169.885997,151.744666 170.327999,151.858 C170.770002,151.971334 171.22333,152.028 171.687999,152.028 C172.980006,152.028 173.625999,151.614337 173.625999,150.787 C173.625999,150.514999 173.552334,150.288334 173.404999,150.107 C173.257665,149.925666 173.048001,149.767001 172.775999,149.631 C172.503998,149.494999 172.175335,149.370334 171.789999,149.257 C171.404664,149.143666 170.974002,149.024667 170.497999,148.9 C169.919997,148.741333 169.418502,148.568501 168.993499,148.3815 C168.568497,148.194499 168.214334,147.976335 167.930999,147.727 C167.647665,147.477665 167.435167,147.183002 167.293499,146.843 C167.151832,146.502998 167.080999,146.100669 167.080999,145.636 C167.080999,145.023997 167.194332,144.480002 167.420999,144.004 C167.647667,143.527998 167.962164,143.131335 168.364499,142.814 C168.766835,142.496665 169.23433,142.255834 169.766999,142.0915 C170.299669,141.927166 170.871996,141.845 171.483999,141.845 C172.334004,141.845 173.115996,141.978165 173.829999,142.2445 C174.544003,142.510835 175.16733,142.825332 175.699999,143.188 L174.662999,145.092 Z M186.792999,154.17 C186.101663,154.17 185.495335,154.014168 184.973999,153.7025 C184.452663,153.390832 184.044668,152.968669 183.749999,152.436 L183.749999,157.621 L181.471999,157.621 L181.471999,145.092 L183.460999,145.092 L183.460999,146.622 C183.789668,146.100664 184.214663,145.689835 184.735999,145.3895 C185.257335,145.089165 185.857996,144.939 186.537999,144.939 C187.138669,144.939 187.693997,145.060832 188.203999,145.3045 C188.714002,145.548168 189.153164,145.876831 189.521499,146.2905 C189.889835,146.704169 190.178832,147.191497 190.388499,147.7525 C190.598167,148.313503 190.702999,148.905664 190.702999,149.529 C190.702999,150.175003 190.606667,150.78133 190.413999,151.348 C190.221332,151.91467 189.952168,152.407665 189.606499,152.827 C189.260831,153.246335 188.847169,153.574999 188.365499,153.813 C187.88383,154.051001 187.359669,154.17 186.792999,154.17 L186.792999,154.17 Z M186.044999,152.232 C186.385001,152.232 186.699498,152.158334 186.988499,152.011 C187.277501,151.863666 187.523998,151.665335 187.727999,151.416 C187.932,151.166665 188.090666,150.877668 188.203999,150.549 C188.317333,150.220332 188.373999,149.880335 188.373999,149.529 C188.373999,149.154998 188.311667,148.806502 188.186999,148.4835 C188.062332,148.160498 187.889501,147.880001 187.668499,147.642 C187.447498,147.403999 187.186834,147.217001 186.886499,147.081 C186.586165,146.944999 186.260335,146.877 185.908999,146.877 C185.693665,146.877 185.472667,146.913833 185.245999,146.9875 C185.019332,147.061167 184.809667,147.165999 184.616999,147.302 C184.424332,147.438001 184.2515,147.596666 184.098499,147.778 C183.945499,147.959334 183.829333,148.157666 183.749999,148.373 L183.749999,150.464 C183.954,150.974003 184.265664,151.396165 184.684999,151.7305 C185.104335,152.064835 185.557664,152.232 186.044999,152.232 L186.044999,152.232 Z M198.463999,154.17 C198.033331,154.17 197.631001,154.099167 197.256999,153.9575 C196.882998,153.815833 196.560001,153.617501 196.287999,153.3625 C196.015998,153.107499 195.8035,152.810002 195.650499,152.47 C195.497499,152.129998 195.420999,151.756002 195.420999,151.348 C195.420999,150.928665 195.514498,150.540502 195.701499,150.1835 C195.8885,149.826498 196.149164,149.523335 196.483499,149.274 C196.817834,149.024665 197.21733,148.829167 197.681999,148.6875 C198.146668,148.545833 198.656663,148.475 199.211999,148.475 C199.608668,148.475 199.996831,148.509 200.376499,148.577 C200.756168,148.645 201.093331,148.741333 201.387999,148.866 L201.387999,148.356 C201.387999,147.766664 201.220834,147.313335 200.886499,146.996 C200.552164,146.678665 200.056336,146.52 199.398999,146.52 C198.922997,146.52 198.458335,146.604999 198.004999,146.775 C197.551664,146.945001 197.087002,147.194332 196.610999,147.523 L195.913999,146.078 C197.058672,145.318663 198.293993,144.939 199.619999,144.939 C200.900672,144.939 201.895163,145.253497 202.603499,145.8825 C203.311836,146.511503 203.665999,147.420994 203.665999,148.611 L203.665999,151.382 C203.665999,151.620001 203.711332,151.789999 203.801999,151.892 C203.892667,151.994001 204.051332,152.050667 204.277999,152.062 L204.277999,154 C204.062665,154.045334 203.8615,154.0765 203.674499,154.0935 C203.487498,154.1105 203.326,154.119 203.189999,154.119 C202.759331,154.107667 202.430667,154.008501 202.203999,153.8215 C201.977332,153.634499 201.835666,153.382335 201.778999,153.065 L201.727999,152.572 C201.331331,153.093336 200.849669,153.489999 200.282999,153.762 C199.71633,154.034001 199.110003,154.17 198.463999,154.17 L198.463999,154.17 Z M199.109999,152.504 C199.495335,152.504 199.860831,152.436001 200.206499,152.3 C200.552168,152.163999 200.821332,151.982668 201.013999,151.756 C201.263334,151.563332 201.387999,151.348001 201.387999,151.11 L201.387999,150.09 C201.115998,149.987999 200.821334,149.905834 200.503999,149.8435 C200.186664,149.781166 199.880668,149.75 199.585999,149.75 C198.996663,149.75 198.515001,149.883165 198.140999,150.1495 C197.766998,150.415835 197.579999,150.752998 197.579999,151.161 C197.579999,151.546335 197.727331,151.866499 198.021999,152.1215 C198.316668,152.376501 198.679331,152.504 199.109999,152.504 L199.109999,152.504 Z" id="EL-PARIÁN-Weddings-&amp;-Copy"></path>
        </g>
    </g>
</svg>